<svg xmlns="http://www.w3.org/2000/svg" viewBox="0 0 96 96" fill="none">
  <rect width="96" height="96" rx="24" fill="#F0FDF4"/>
  <rect x="10" y="10" width="76" height="76" rx="20" fill="#16A34A"/>
  <!-- Widget card 1 (top-left) -->
  <rect x="22" y="22" width="24" height="20" rx="3" fill="#fff"/>
  <rect x="26" y="26" width="12" height="2.5" rx="1.25" fill="#BBF7D0"/>
  <rect x="26" y="31" width="16" height="2" rx="1" fill="#DCFCE7"/>
  <rect x="26" y="35" width="10" height="2" rx="1" fill="#DCFCE7"/>
  <!-- Widget card 2 (top-right) -->
  <rect x="50" y="22" width="24" height="20" rx="3" fill="#fff"/>
  <rect x="54" y="26" width="12" height="2.5" rx="1.25" fill="#BBF7D0"/>
  <rect x="56" y="32" width="8" height="8" rx="4" fill="#22C55E" opacity="0.3"/>
  <!-- Widget card 3 (bottom-left) -->
  <rect x="22" y="46" width="24" height="20" rx="3" fill="#fff"/>
  <rect x="26" y="50" width="12" height="2.5" rx="1.25" fill="#BBF7D0"/>
  <rect x="26" y="55" width="16" height="2" rx="1" fill="#DCFCE7"/>
  <rect x="26" y="59" width="14" height="2" rx="1" fill="#DCFCE7"/>
  <!-- Sparkle / AI indicator (bottom-right) -->
  <rect x="50" y="46" width="24" height="20" rx="3" fill="#fff"/>
  <path d="M62 52 L63.5 56 L67.5 57.5 L63.5 59 L62 63 L60.5 59 L56.5 57.5 L60.5 56 Z" fill="#FBBF24"/>
  <circle cx="57" cy="53" r="1" fill="#FBBF24" opacity="0.6"/>
  <circle cx="67" cy="62" r="0.8" fill="#FBBF24" opacity="0.6"/>
</svg>
